<svg xmlns="http://www.w3.org/2000/svg" viewBox="0 0 124.57 127.94"><title>favicon</title><path d="M105.06,16.52a8.94,8.94,0,1,1-8.94-8.94,8.94,8.94,0,0,1,8.94,8.94" transform="translate(-8.47 -7.58)" style="fill:#068653"/><path d="M69.65,58.87c7,0,11.73-4.55,11.73-11.59S76.55,35.41,69.23,35.41c-6.61,0-11.31,4.69-11.31,12.14,0,7.18,4.42,11.32,11.73,11.32" transform="translate(-8.47 -7.58)" style="fill:#103f6a"/><path d="M77.52,95.44l-15.88-.83c-5,2.34-7.3,4.55-7.3,7.59,0,4.69,5.23,8,14.07,8,12,0,18.76-3.86,18.76-9,0-4-3.17-5.53-9.65-5.8" transform="translate(-8.47 -7.58)" style="fill:#103f6a"/><path d="M106.18,22a11.44,11.44,0,0,1-20.83-9.33A62.32,62.32,0,1,0,106.18,22M68.69,122.34c-20.29,0-30.64-6.34-30.64-18.07,0-6.76,4-10.49,12.56-13.25-6.49-3.17-9.52-6.07-9.52-11s3.72-10.07,10.76-13.66c-6.62-4-10.07-10.49-10.07-18.9,0-14.77,11-25.12,27.46-25.12a28.64,28.64,0,0,1,18.6,6.57,25.57,25.57,0,0,1,7.55,11,27.49,27.49,0,0,1,1.31,9c0,14-10.21,23.05-27.06,23.05A32.9,32.9,0,0,1,61.78,71c-3.17,1.24-4.69,2.89-4.69,4.83,0,4.84,6.62,4.41,19,5.39,18.62,1.38,26.49,5,26.49,18.77,0,14.2-11.73,22.34-33.94,22.34" transform="translate(-8.47 -7.58)" style="fill:#103f6a"/></svg>