<svg xmlns="http://www.w3.org/2000/svg" viewBox="0 0 909.14 127.94"><title>global-payments-logo</title><path d="M174.61,85c0-4.45,3.25-8.77,9.37-11.89-5.77-3.5-8.76-9.14-8.76-16.47,0-12.85,9.6-21.87,23.9-21.87a24.94,24.94,0,0,1,16.19,5.72A22.2,22.2,0,0,1,221.89,50,23.77,23.77,0,0,1,223,57.83C223,70,214.14,77.9,199.48,77.9a28.48,28.48,0,0,1-6.84-.72c-2.77,1.08-4.09,2.53-4.09,4.21,0,4.2,5.76,3.83,16.58,4.68,16.21,1.21,23.06,4.33,23.06,16.35,0,12.37-10.2,19.46-29.55,19.46-17.66,0-26.67-5.53-26.67-15.75,0-5.88,3.48-9.12,10.94-11.52-5.66-2.78-8.3-5.29-8.3-9.62m11.53,19.35c0,4.07,4.57,7,12.27,7,10.44,0,16.33-3.37,16.33-7.81,0-3.49-2.76-4.81-8.41-5l-13.82-.71c-4.33,2-6.37,4-6.37,6.61M199.48,66.6c6.13,0,10.22-4,10.22-10.08s-4.21-10.34-10.58-10.34c-5.77,0-9.85,4.08-9.85,10.57,0,6.25,3.85,9.85,10.21,9.85" transform="translate(-8.47 -7.58)" style="fill:#103f6a"/><path d="M228.39,31.51a7.86,7.86,0,1,1-7.85-7.86,7.84,7.84,0,0,1,7.85,7.86" transform="translate(-8.47 -7.58)" style="fill:#068653"/><rect x="227.34" y="4.04" width="14.94" height="87.61" style="fill:#103f6a"/><path d="M286.06,34.88c16.88,0,27,12.06,27,32.78s-10.25,32.79-27,32.79-27-12.18-27-32.79,10.12-32.78,27-32.78m0,52.8c8.08,0,11.94-6.63,11.94-20s-3.86-19.88-11.94-19.88-11.93,6.51-11.93,19.88,4,20,11.93,20" transform="translate(-8.47 -7.58)" style="fill:#103f6a"/><path d="M321.38,84.54V11.63h14.7V42.12c4.33-5.07,8.91-7.23,15.31-7.23,13.61,0,24.09,12.41,24.09,32.78,0,19.64-10.24,32.78-24.58,32.78-6.75,0-11.93-2.42-17.11-8l-1.57,6.74H320.65c.48-6.74.73-11.69.73-14.7m25.78,3.37c8.32,0,13.39-7.11,13.39-20.24s-5.19-20.5-13.26-20.5c-4.1,0-7.48,1.81-11.34,5.31v30c3.74,3.63,7.12,5.43,11.21,5.43" transform="translate(-8.47 -7.58)" style="fill:#103f6a"/><path d="M415.61,93.7a31.23,31.23,0,0,1-18.8,6.26C386.21,100,380,93.57,380,83.1c0-14.11,11.69-21.58,35.79-24.59V53.57c0-4.59-3.14-7.24-8.92-7.24A16.4,16.4,0,0,0,393,53.57l-10.12-6.4q7.95-12.27,24.22-12.28c14.82,0,23.13,7.1,23.13,18.68V90.68a54.56,54.56,0,0,0,1,8.56H416.94Zm-21-11.81c0,4.22,2.41,6.74,6.75,6.74,4.7,0,9.28-2.17,13.86-6.62V68.51c-14,1.93-20.61,5.91-20.61,13.38" transform="translate(-8.47 -7.58)" style="fill:#103f6a"/><rect x="434.38" y="4.04" width="14.94" height="87.61" style="fill:#103f6a"/><path d="M472,36.21h5.55l1.92,8.19H480C485.94,38.14,492.21,35,499,35c13.73,0,23.37,11.93,23.37,32.66s-9.64,32.65-23.37,32.65c-6.75,0-13-3-18.92-9.28h-.61v31.1H472Zm7.47,46.16c6.27,7.95,11.94,11.93,18.92,11.93,10.36,0,16.51-9.28,16.51-26.52s-6.15-26.51-16.51-26.51c-7,0-12.65,3.86-18.92,11.81Z" transform="translate(-8.47 -7.58)" style="fill:#103f6a"/><path d="M565.6,90.93c-6.87,6.38-13.75,9.52-21.45,9.52-10.37,0-17-7.12-17-16.88,0-14.58,12.17-21.09,38.56-25.79V51.64c0-6.15-5.18-10.37-13.87-10.37-6.86,0-11.92,3.37-15.65,10.13L530.4,48c5-8.67,11.57-12.89,22.42-12.89,11.94,0,20.26,7.11,20.26,16.51V90.8a55,55,0,0,0,1.08,8.44h-7.35a52.41,52.41,0,0,1-1.21-8.31m0-27.12c-21.22,4.7-31,8.67-31,19.4,0,7,4,11.21,10.48,11.21,6.86,0,13.13-3.74,20.48-11.21V63.81Z" transform="translate(-8.47 -7.58)" style="fill:#103f6a"/><path d="M579.7,36.21h7.46l18.57,53.63,18.44-53.63h7.11l-23.75,68c-4.34,12.52-9.4,17.71-20.24,17.71a43.69,43.69,0,0,1-6.51-.48v-6a29,29,0,0,0,5.3.49c9,0,13.13-5.06,15.55-17Z" transform="translate(-8.47 -7.58)" style="fill:#103f6a"/><path d="M638.75,36.21h6.86V46h.48c6.63-7.23,13.63-10.84,20.26-10.84,7.1,0,12.17,3.61,15.06,10.84h.84c6.87-7.23,13.5-10.84,20.25-10.84q15.9,0,15.91,20.25V99.24H711.3V58c0-11.09-1.93-16.4-10.84-16.4-5.79,0-12.06,3.86-18.21,11.7V99.24H675V58c0-11.09-1.93-16.4-10.84-16.4-5.78,0-11.94,3.86-18.21,11.7V99.24h-7.22Z" transform="translate(-8.47 -7.58)" style="fill:#103f6a"/><path d="M777.46,84.06c-5.55,11.33-12.66,16.26-23.75,16.26-15.66,0-25.67-12.41-25.67-32.17C728,47.3,738.41,35,753.48,35S777.1,45.5,777.1,65.49v2.05H735.52C735.64,85,742.27,94.3,754.2,94.3c8.08,0,13.26-4,17.71-13.25ZM753.59,41.15c-9.88,0-16.87,7.47-18.07,21h34.59c-.36-13.62-6.63-21-16.52-21" transform="translate(-8.47 -7.58)" style="fill:#103f6a"/><path d="M786.85,36.21h7.48v9.88c7.47-7.35,14.82-11,21.81-11q17,0,17,20.25V99.24h-7.36V58c0-11.09-2.17-16.4-11.81-16.4-6.27,0-12.89,3.86-19.65,11.7V99.24h-7.47v-63Z" transform="translate(-8.47 -7.58)" style="fill:#103f6a"/><path d="M863.87,94.54a28.49,28.49,0,0,0,6.62-1.21v6a34,34,0,0,1-8.43,1.2c-8.68,0-12.41-4.33-12.41-13.49V42.36h-9.41V36.21h9.41V17.53H857V36.21h13.12v6.15H857V87.43c0,4.82,2.16,7.11,6.87,7.11" transform="translate(-8.47 -7.58)" style="fill:#103f6a"/><path d="M897,94.42c7.84,0,13-4.94,13-11.57,0-7.6-5.9-9.28-16.27-13.13-12.77-4.71-19.4-8.33-19.4-18S882.18,35,894.72,35c8.18,0,15.42,4,21,11.57l-5.3,3.85c-4.82-6.39-10-9.4-17-9.4s-11.33,4.22-11.33,10.36c0,6.75,6.14,8.31,16.63,12.3,12.54,4.7,18.92,8.55,18.92,18.55,0,10.49-8.43,18.07-21.45,18.07-9.89,0-17.47-4-23.74-12.39L878,83.45c5.41,7.23,11.68,11,19,11" transform="translate(-8.47 -7.58)" style="fill:#103f6a"/><path d="M105.06,16.52a8.94,8.94,0,1,1-8.94-8.94,8.94,8.94,0,0,1,8.94,8.94" transform="translate(-8.47 -7.58)" style="fill:#068653"/><path d="M69.65,58.87c7,0,11.73-4.55,11.73-11.59S76.55,35.41,69.23,35.41c-6.61,0-11.31,4.69-11.31,12.14,0,7.18,4.42,11.32,11.73,11.32" transform="translate(-8.47 -7.58)" style="fill:#103f6a"/><path d="M77.52,95.44l-15.88-.83c-5,2.34-7.3,4.55-7.3,7.59,0,4.69,5.23,8,14.07,8,12,0,18.76-3.86,18.76-9,0-4-3.17-5.53-9.65-5.8" transform="translate(-8.47 -7.58)" style="fill:#103f6a"/><path d="M106.18,22a11.44,11.44,0,0,1-20.83-9.33A62.32,62.32,0,1,0,106.18,22M68.69,122.34c-20.29,0-30.64-6.34-30.64-18.07,0-6.76,4-10.49,12.56-13.25-6.49-3.17-9.52-6.07-9.52-11s3.72-10.07,10.76-13.66c-6.62-4-10.07-10.49-10.07-18.9,0-14.77,11-25.12,27.46-25.12a28.64,28.64,0,0,1,18.6,6.57,25.57,25.57,0,0,1,7.55,11,27.49,27.49,0,0,1,1.31,9c0,14-10.21,23.05-27.06,23.05A32.9,32.9,0,0,1,61.78,71c-3.17,1.24-4.69,2.89-4.69,4.83,0,4.84,6.62,4.41,19,5.39,18.62,1.38,26.49,5,26.49,18.77,0,14.2-11.73,22.34-33.94,22.34" transform="translate(-8.47 -7.58)" style="fill:#103f6a"/></svg>